<mxfile host="app.diagrams.net" modified="2020-09-06T05:24:45.727Z" agent="5.0 (X11)" etag="2wfAXblbnRbH9x5BdB40" version="13.6.6" type="github">
  <diagram id="iBicDxHrLlnOZrWKdqRp" name="Page-1">
    <mxGraphModel dx="796" dy="1595" grid="1" gridSize="10" guides="1" tooltips="1" connect="1" arrows="1" fold="1" page="1" pageScale="1" pageWidth="827" pageHeight="1169" math="0" shadow="0">
      <root>
        <mxCell id="0" />
        <mxCell id="1" parent="0" />
        <mxCell id="OR8cHY_HCzaqjykIznZL-2" value="&lt;table style=&quot;width: 100% ; height: 100% ; border-collapse: collapse&quot; width=&quot;100%&quot; cellpadding=&quot;4&quot; border=&quot;1&quot;&gt;&lt;tbody&gt;&lt;tr&gt;&lt;th align=&quot;center&quot;&gt;DELEGACIONES&lt;br&gt;&lt;/th&gt;&lt;/tr&gt;&lt;tr&gt;&lt;td align=&quot;center&quot;&gt;Entrenador: str&lt;br&gt;Equipo: list&lt;br&gt;Medallas:int&lt;br&gt;Moral:int&lt;br&gt;Dinero:int&lt;br&gt;Excelencia_Respeto:float&lt;br&gt;Implementos_Deportivos:float&lt;br&gt;Implementos_MÃ©dicos:float&lt;br&gt;&lt;/td&gt;&lt;/tr&gt;&lt;tr&gt;&lt;td align=&quot;center&quot;&gt;Fichar_deportista(lista, self):None&lt;br&gt;Entrenar_Deportista(Deportista, self):None&lt;br&gt;Sanar_Lesiones():&lt;br&gt;&lt;/td&gt;&lt;/tr&gt;&lt;/tbody&gt;&lt;/table&gt;" style="text;html=1;strokeColor=none;fillColor=none;overflow=fill;fontFamily=Times New Roman;" parent="1" vertex="1">
          <mxGeometry x="465" y="-350" width="300" height="210" as="geometry" />
        </mxCell>
        <mxCell id="OR8cHY_HCzaqjykIznZL-3" value="&lt;table style=&quot;width: 100% ; height: 100% ; border-collapse: collapse&quot; width=&quot;100%&quot; cellpadding=&quot;4&quot; border=&quot;1&quot;&gt;&lt;tbody&gt;&lt;tr&gt;&lt;th align=&quot;center&quot;&gt;DEPORTES (abstracta)&lt;br&gt;&lt;/th&gt;&lt;/tr&gt;&lt;tr&gt;&lt;td align=&quot;center&quot;&gt;Implementos: boll&lt;br&gt;Riesgo:float&lt;br&gt;&lt;/td&gt;&lt;/tr&gt;&lt;tr&gt;&lt;td align=&quot;center&quot;&gt;Validez_competencia(Deportista):bool&lt;br&gt;Calcular_Ganador(Deportista):list()&lt;br&gt;Lesionar(Deportista):bool&lt;br&gt;Calculo_puntuacion():ABSTRACTA&lt;br&gt;&lt;/td&gt;&lt;/tr&gt;&lt;/tbody&gt;&lt;/table&gt;" style="text;html=1;strokeColor=none;fillColor=none;overflow=fill;fontFamily=Times New Roman;" parent="1" vertex="1">
          <mxGeometry x="30" y="-140" width="320" height="160" as="geometry" />
        </mxCell>
        <mxCell id="OR8cHY_HCzaqjykIznZL-4" value="&lt;table style=&quot;width: 100% ; height: 100% ; border-collapse: collapse&quot; width=&quot;100%&quot; cellpadding=&quot;4&quot; border=&quot;1&quot;&gt;&lt;tbody&gt;&lt;tr&gt;&lt;th align=&quot;center&quot;&gt;DEPORTISTA&lt;br&gt;&lt;/th&gt;&lt;/tr&gt;&lt;tr&gt;&lt;td align=&quot;center&quot;&gt;Velocidad:int&lt;br&gt;Resistencia: int&lt;br&gt;Flexibilidad: int&lt;br&gt;Moral: int&lt;br&gt;Lesionado: BOOL&lt;br&gt;Precio: int&lt;br&gt;&lt;/td&gt;&lt;/tr&gt;&lt;tr&gt;&lt;td align=&quot;center&quot;&gt;Entrenar(self):None&lt;br&gt;Lesionarse():bool&lt;br&gt;&lt;/td&gt;&lt;/tr&gt;&lt;/tbody&gt;&lt;/table&gt;" style="text;html=1;strokeColor=none;fillColor=none;overflow=fill;fontFamily=Times New Roman;" parent="1" vertex="1">
          <mxGeometry x="595" y="-140" width="170" height="190" as="geometry" />
        </mxCell>
        <mxCell id="OR8cHY_HCzaqjykIznZL-5" value="&lt;table style=&quot;width: 100% ; height: 100% ; border-collapse: collapse&quot; width=&quot;100%&quot; cellpadding=&quot;4&quot; border=&quot;1&quot;&gt;&lt;tbody&gt;&lt;tr&gt;&lt;th align=&quot;center&quot;&gt;&lt;b&gt;CAMPEONATO&lt;/b&gt;&lt;/th&gt;&lt;/tr&gt;&lt;tr&gt;&lt;td align=&quot;center&quot;&gt;Dia_Actual:int&lt;br&gt;Medallero: dict()&lt;br&gt;&lt;/td&gt;&lt;/tr&gt;&lt;tr&gt;&lt;td align=&quot;center&quot;&gt;Realizar_competencia_dia(Deportista, Deportes):txt&lt;br&gt;Premiar(txt):None&lt;br&gt;Calcular_nivel_moral(txt):int&lt;br&gt;Mostrar_estados(txt, Delegaciones):str&lt;br&gt;&lt;/td&gt;&lt;/tr&gt;&lt;/tbody&gt;&lt;/table&gt;" style="text;html=1;strokeColor=none;fillColor=none;overflow=fill;fontFamily=Times New Roman;" parent="1" vertex="1">
          <mxGeometry x="195" y="-360" width="270" height="220" as="geometry" />
        </mxCell>
        <mxCell id="xSWeatawyfGFOqwIpkRg-6" value="&lt;table style=&quot;width: 100% ; height: 100% ; border-collapse: collapse&quot; width=&quot;100%&quot; cellpadding=&quot;4&quot; border=&quot;1&quot;&gt;&lt;tbody&gt;&lt;tr&gt;&lt;th align=&quot;center&quot;&gt;&lt;b&gt;NATACION&lt;/b&gt;&lt;/th&gt;&lt;/tr&gt;&lt;tr&gt;&lt;td align=&quot;center&quot;&gt;Velocidad:int&lt;br&gt;Resistencia:int&lt;br&gt;Flexibilidad:int&lt;br&gt;&lt;/td&gt;&lt;/tr&gt;&lt;tr&gt;&lt;td align=&quot;center&quot;&gt;Calculo_puntuacion(self):int&lt;br&gt;&lt;/td&gt;&lt;/tr&gt;&lt;/tbody&gt;&lt;/table&gt;" style="text;html=1;strokeColor=none;fillColor=none;overflow=fill;" parent="1" vertex="1">
          <mxGeometry x="190" y="160" width="160" height="140" as="geometry" />
        </mxCell>
        <mxCell id="xSWeatawyfGFOqwIpkRg-7" value="&lt;table style=&quot;width: 100% ; height: 100% ; border-collapse: collapse&quot; width=&quot;100%&quot; cellpadding=&quot;4&quot; border=&quot;1&quot;&gt;&lt;tbody&gt;&lt;tr&gt;&lt;th align=&quot;center&quot;&gt;CICLISMO&lt;/th&gt;&lt;/tr&gt;&lt;tr&gt;&lt;td align=&quot;center&quot;&gt;Velocidad:int&lt;br&gt;Resistencia:int&lt;br&gt;Flexibilidad:int&lt;br&gt;&lt;/td&gt;&lt;/tr&gt;&lt;tr&gt;&lt;td align=&quot;center&quot;&gt;Calculo_puntuacion(self):int&lt;/td&gt;&lt;/tr&gt;&lt;/tbody&gt;&lt;/table&gt;" style="text;html=1;strokeColor=none;fillColor=none;overflow=fill;" parent="1" vertex="1">
          <mxGeometry x="190" y="20" width="160" height="140" as="geometry" />
        </mxCell>
        <mxCell id="xSWeatawyfGFOqwIpkRg-8" value="&lt;table style=&quot;width: 100% ; height: 100% ; border-collapse: collapse&quot; width=&quot;100%&quot; cellpadding=&quot;4&quot; border=&quot;1&quot;&gt;&lt;tbody&gt;&lt;tr&gt;&lt;th align=&quot;center&quot;&gt;&lt;b&gt;GIMNASIA&lt;/b&gt;&lt;/th&gt;&lt;/tr&gt;&lt;tr&gt;&lt;td align=&quot;center&quot;&gt;Resistencia:int&lt;br&gt;Flexibilidad:int&lt;/td&gt;&lt;/tr&gt;&lt;tr&gt;&lt;td align=&quot;center&quot;&gt;Calculo_puntuacion(self):int&lt;/td&gt;&lt;/tr&gt;&lt;/tbody&gt;&lt;/table&gt;" style="text;html=1;strokeColor=none;fillColor=none;overflow=fill;" parent="1" vertex="1">
          <mxGeometry x="30" y="160" width="160" height="140" as="geometry" />
        </mxCell>
        <mxCell id="xSWeatawyfGFOqwIpkRg-9" value="&lt;table style=&quot;width: 100% ; height: 100% ; border-collapse: collapse&quot; width=&quot;100%&quot; cellpadding=&quot;4&quot; border=&quot;1&quot;&gt;&lt;tbody&gt;&lt;tr&gt;&lt;th align=&quot;center&quot;&gt;ATLETISMO&lt;/th&gt;&lt;/tr&gt;&lt;tr&gt;&lt;td align=&quot;center&quot;&gt;velocidad:int&lt;br&gt;Resistencia:int&lt;br&gt;Moral:int&lt;br&gt;&lt;/td&gt;&lt;/tr&gt;&lt;tr&gt;&lt;td align=&quot;center&quot;&gt;calculo_puntuacion(self):int&lt;br&gt;&lt;/td&gt;&lt;/tr&gt;&lt;/tbody&gt;&lt;/table&gt;" style="text;html=1;strokeColor=none;fillColor=none;overflow=fill;" parent="1" vertex="1">
          <mxGeometry x="30" y="20" width="160" height="140" as="geometry" />
        </mxCell>
      </root>
    </mxGraphModel>
  </diagram>
</mxfile>
